<svg viewBox="0 0 100 100" xmlns="http://www.w3.org/2000/svg">
  <!-- Villa Nobby brand mark (vector recreation of the original logo) -->
  <!-- top-left dark mass, concave sweep -->
  <path d="M6,0 H31 C29,22 21,43 0,59 V6 C0,2.7 2.7,0 6,0 Z" fill="#3a4a33"/>
  <!-- curved band sweeping from top to lower-left -->
  <path d="M39,0 H53 C50,32 35,62 6,82 L0,86 V70 C19,55 32,29 34,0 Z" fill="#3a4a33"/>
  <!-- pale strip bottom-left -->
  <path d="M0,88 H28 Q33,88 33,93 V100 H0 Z" fill="#f2e4c4"/>
  <!-- top-right block: forest half -->
  <path d="M53,0 H70 V33 H53 Z" fill="#3a4a33"/>
  <!-- top-right block: sage half, rounded outer corner -->
  <path d="M70,0 H82 Q88,0 88,6 V33 H70 Z" fill="#8a9678"/>
  <!-- large sand mass with S-curved left edge -->
  <path d="M58,36 C46,42 35,51 38,64 C41,77 48,87 46,100 H94 C97.3,100 100,97.3 100,94 V60 C100,45 84,33 66,35 Z" fill="#e2bf8d"/>
</svg>
